<svg xmlns="http://www.w3.org/2000/svg" xmlns:xlink="http://www.w3.org/1999/xlink" viewBox="0 0 13 16"><g transform="translate(0 0)" id="ss603166010_1"><path d="M 10.455 8.271 C 10.47 7.06 11.098 5.941 12.119 5.306 C 11.472 4.372 10.428 3.801 9.3 3.765 C 8.113 3.639 6.963 4.483 6.358 4.483 C 5.742 4.483 4.811 3.777 3.809 3.799 C 2.49 3.842 1.29 4.581 0.649 5.747 C -0.718 8.139 0.302 11.654 1.61 13.587 C 2.265 14.534 3.03 15.591 4.032 15.554 C 5.012 15.512 5.378 14.921 6.562 14.921 C 7.733 14.921 8.076 15.554 9.098 15.53 C 10.15 15.512 10.812 14.579 11.444 13.623 C 11.915 12.948 12.277 12.203 12.518 11.414 C 11.268 10.88 10.456 9.643 10.455 8.271 Z M 8.524 2.493 C 9.098 1.797 9.38 0.903 9.312 0 C 8.436 0.093 7.627 0.516 7.046 1.186 C 6.472 1.846 6.181 2.709 6.237 3.586 C 7.125 3.595 7.968 3.192 8.524 2.493 Z" fill="hsl(0, 0%, 100%)"></path></g></svg>